<svg width="33" height="33" viewBox="0 0 33 33" fill="none" xmlns="http://www.w3.org/2000/svg">
<g clip-path="url(#clip0_10502_1104)">
<path d="M16.4751 32.3245C25.3117 32.3245 32.4751 25.161 32.4751 16.3245C32.4751 7.48791 25.3117 0.324463 16.4751 0.324463C7.63854 0.324463 0.475098 7.48791 0.475098 16.3245C0.475098 25.161 7.63854 32.3245 16.4751 32.3245Z" fill="#008DE4"/>
<path d="M19.8959 7.3631H11.8585L11.1927 11.0862L18.4488 11.0964C22.0225 11.0964 23.0789 12.3941 23.0484 14.5444C23.0314 15.6484 22.5558 17.5134 22.3486 18.1181C21.7982 19.7283 20.667 21.5695 16.4275 21.5627L9.37192 21.5593L8.70271 25.2858H16.7231C19.5528 25.2858 20.7554 24.9563 22.0292 24.3686C24.8556 23.0642 26.5371 20.2752 27.2097 16.637C28.2152 11.2187 26.9651 7.3631 19.8959 7.3631Z" fill="white"/>
<path d="M8.38678 14.4527C6.28062 14.4527 5.97829 15.8251 5.78126 16.654C5.51969 17.741 5.43476 18.1792 5.43476 18.1792H13.6658C15.7719 18.1792 16.0743 16.8068 16.2713 15.978C16.5328 14.8909 16.6178 14.4527 16.6178 14.4527H8.38678Z" fill="white"/>
</g>
<defs>
<clipPath id="clip0_10502_1104">
<rect width="32" height="32" fill="white" transform="translate(0.475098 0.324463)"/>
</clipPath>
</defs>
</svg>
