<svg width="152" height="41" viewBox="0 0 152 41" fill="none" xmlns="http://www.w3.org/2000/svg">
<path d="M32.3367 0.0998535H14.3579L12.8639 8.43086L29.0955 8.45619C37.0973 8.45619 39.4523 11.3682 39.3763 16.1795C39.351 18.6357 38.2621 22.8139 37.8063 24.156C36.5655 27.7517 34.0586 31.8792 24.5628 31.8539H8.78705L7.31836 40.1849H25.2465C31.577 40.1849 34.2612 39.4506 37.1226 38.1338C43.4278 35.2218 47.2008 28.9925 48.6949 20.8387C50.9485 8.73473 48.1378 0.0998535 32.3367 0.0998535Z" fill="#008DE4"/>
<path d="M87.9443 40.2103L89.2104 32.9682H104.556C105.771 32.9682 106.607 32.2338 106.784 31.0437C107.037 29.8282 106.43 29.1192 105.214 29.1192H97.8706C92.0719 29.1192 89.3117 25.7513 90.3246 19.9525C91.3628 14.1537 95.3384 10.7859 101.137 10.7859H117.825L116.508 18.028H101.796C100.58 18.028 99.7445 18.7624 99.5672 19.9525C99.314 21.168 99.9217 21.877 101.137 21.877H108.481C114.279 21.877 117.04 25.2449 116.027 31.0437C115.014 36.8424 111.089 40.2103 105.29 40.2103H87.9443Z" fill="#008DE4"/>
<path d="M64.5463 40.2102C54.9999 40.2102 50.7204 35.0192 52.417 25.4727C54.0376 15.9262 60.1909 10.7605 69.7374 10.7605H86.6273L81.4363 40.2102H64.5463ZM75.5362 18.0027H71.1808C65.9897 18.0027 62.9257 20.307 62.0141 25.4727C61.0519 30.6638 62.9764 32.9681 68.1674 32.9681H72.928L75.5362 18.0027Z" fill="#008DE4"/>
<path d="M138.766 40.2102L141.779 23.0671C142.311 19.6993 140.943 18.2306 137.576 18.2306H132.764L128.89 40.1849H119.116L126.181 0.0998535H135.955L134.081 10.7605H141.399C149.958 10.7605 153.047 14.5082 151.528 23.0671L148.515 40.2102H138.766Z" fill="#008DE4"/>
<path d="M6.6091 15.9515C1.89917 15.9515 1.21547 19.0155 0.784989 20.864C0.202578 23.295 0 24.2825 0 24.2825H18.4093C23.1192 24.2825 23.8029 21.2186 24.2334 19.37C24.8158 16.9391 25.0183 15.9515 25.0183 15.9515H6.6091Z" fill="#008DE4"/>
</svg>
