<svg width="19" height="19" viewBox="0 0 19 19" fill="none" xmlns="http://www.w3.org/2000/svg">
<path d="M15.5791 3.18239C15.574 3.1725 15.5655 3.16474 15.5552 3.16052C14.3639 2.61391 13.1066 2.22414 11.815 2.00096C11.8033 1.99877 11.7912 2.00035 11.7804 2.00545C11.7696 2.01056 11.7607 2.01894 11.7549 2.02939C11.5837 2.34011 11.4283 2.65926 11.2893 2.98564C9.89701 2.77429 8.48079 2.77429 7.0885 2.98564C6.94855 2.65844 6.79065 2.3392 6.61553 2.02939C6.60952 2.01916 6.60057 2.01098 6.58985 2.00591C6.57912 2.00083 6.56712 1.99911 6.5554 2.00096C5.26365 2.22367 4.00635 2.61347 2.81515 3.16055C2.80495 3.16487 2.79635 3.17225 2.79053 3.18167C0.408371 6.73911 -0.244192 10.2091 0.0759332 13.6361C0.0768337 13.6445 0.0794142 13.6526 0.0835211 13.66C0.087628 13.6674 0.0931774 13.6739 0.0998394 13.679C1.48695 14.7061 3.03844 15.4901 4.68812 15.9975C4.69974 16.0009 4.71214 16.0008 4.72367 15.997C4.7352 15.9932 4.74529 15.986 4.75259 15.9763C5.1069 15.4942 5.42085 14.9837 5.69125 14.45C5.69496 14.4427 5.69708 14.4347 5.69747 14.4265C5.69786 14.4183 5.6965 14.4101 5.69349 14.4024C5.69048 14.3948 5.68589 14.3879 5.68001 14.3821C5.67414 14.3764 5.66711 14.372 5.6594 14.3691C5.16433 14.1797 4.68504 13.9514 4.22603 13.6862C4.21769 13.6813 4.21069 13.6745 4.20564 13.6662C4.20059 13.658 4.19765 13.6486 4.19708 13.6389C4.19651 13.6293 4.19832 13.6196 4.20236 13.6108C4.2064 13.6021 4.21254 13.5944 4.22025 13.5885C4.31656 13.5164 4.41293 13.4413 4.5049 13.3655C4.51307 13.3588 4.52296 13.3545 4.53345 13.3531C4.54394 13.3516 4.55462 13.3532 4.56428 13.3575C7.57143 14.7299 10.8271 14.7299 13.7987 13.3575C13.8083 13.3529 13.8191 13.3512 13.8298 13.3524C13.8404 13.3537 13.8505 13.358 13.8588 13.3648C13.9508 13.4406 14.0471 13.5164 14.1442 13.5885C14.1519 13.5943 14.1581 13.6019 14.1622 13.6107C14.1663 13.6195 14.1682 13.6291 14.1677 13.6387C14.1672 13.6484 14.1643 13.6578 14.1593 13.6661C14.1543 13.6744 14.1474 13.6813 14.1391 13.6862C13.6811 13.9536 13.2014 14.1818 12.705 14.3684C12.6973 14.3714 12.6903 14.3759 12.6845 14.3817C12.6786 14.3875 12.6741 14.3945 12.6711 14.4022C12.6682 14.4099 12.6669 14.4182 12.6674 14.4264C12.6678 14.4346 12.67 14.4427 12.6738 14.45C12.9487 14.9808 13.2622 15.4906 13.6117 15.9755C13.6188 15.9854 13.6289 15.9929 13.6404 15.9968C13.652 16.0007 13.6645 16.0009 13.6762 15.9974C15.3288 15.4917 16.883 14.7077 18.2719 13.679C18.2786 13.6741 18.2843 13.6678 18.2884 13.6605C18.2925 13.6532 18.295 13.6451 18.2958 13.6368C18.679 9.67483 17.6542 6.2333 15.5791 3.18239ZM6.14034 11.5494C5.23496 11.5494 4.48896 10.7185 4.48896 9.69817C4.48896 8.6778 5.2205 7.84689 6.14034 7.84689C7.06737 7.84689 7.80615 8.68502 7.79168 9.69811C7.79168 10.7185 7.06012 11.5494 6.14034 11.5494ZM12.246 11.5494C11.3406 11.5494 10.5946 10.7185 10.5946 9.69817C10.5946 8.6778 11.3262 7.84689 12.246 7.84689C13.1731 7.84689 13.9118 8.68502 13.8973 9.69811C13.8973 10.7185 13.1731 11.5494 12.246 11.5494Z" fill="white"/>
</svg>
