<svg width="19" height="19" viewBox="0 0 19 19" fill="none" xmlns="http://www.w3.org/2000/svg">
<path d="M6.18437 14.1687C6.18437 14.2312 6.1125 14.2812 6.02187 14.2812C5.91875 14.2906 5.84688 14.2406 5.84688 14.1687C5.84688 14.1062 5.91875 14.0562 6.00938 14.0562C6.10313 14.0469 6.18437 14.0969 6.18437 14.1687ZM5.2125 14.0281C5.19063 14.0906 5.25313 14.1625 5.34688 14.1812C5.42813 14.2125 5.52187 14.1812 5.54063 14.1187C5.55938 14.0562 5.5 13.9844 5.40625 13.9563C5.325 13.9344 5.23438 13.9656 5.2125 14.0281ZM6.59375 13.975C6.50313 13.9969 6.44062 14.0563 6.45 14.1281C6.45937 14.1906 6.54063 14.2313 6.63438 14.2094C6.725 14.1875 6.7875 14.1281 6.77812 14.0656C6.76875 14.0063 6.68437 13.9656 6.59375 13.975ZM8.65 2C4.31563 2 1 5.29063 1 9.625C1 13.0906 3.18125 16.0563 6.29688 17.1C6.69688 17.1719 6.8375 16.925 6.8375 16.7219C6.8375 16.5281 6.82812 15.4594 6.82812 14.8031C6.82812 14.8031 4.64062 15.2719 4.18125 13.8719C4.18125 13.8719 3.825 12.9625 3.3125 12.7281C3.3125 12.7281 2.59687 12.2375 3.3625 12.2469C3.3625 12.2469 4.14062 12.3094 4.56875 13.0531C5.25312 14.2594 6.4 13.9125 6.84688 13.7063C6.91875 13.2063 7.12188 12.8594 7.34688 12.6531C5.6 12.4594 3.8375 12.2062 3.8375 9.2C3.8375 8.34062 4.075 7.90938 4.575 7.35938C4.49375 7.15625 4.22813 6.31875 4.65625 5.2375C5.30937 5.03437 6.8125 6.08125 6.8125 6.08125C7.4375 5.90625 8.10938 5.81563 8.775 5.81563C9.44063 5.81563 10.1125 5.90625 10.7375 6.08125C10.7375 6.08125 12.2406 5.03125 12.8938 5.2375C13.3219 6.32188 13.0563 7.15625 12.975 7.35938C13.475 7.9125 13.7812 8.34375 13.7812 9.2C13.7812 12.2156 11.9406 12.4563 10.1938 12.6531C10.4813 12.9 10.725 13.3687 10.725 14.1031C10.725 15.1562 10.7156 16.4594 10.7156 16.7156C10.7156 16.9187 10.8594 17.1656 11.2563 17.0938C14.3813 16.0562 16.5 13.0906 16.5 9.625C16.5 5.29063 12.9844 2 8.65 2ZM4.0375 12.7781C3.99687 12.8094 4.00625 12.8813 4.05938 12.9406C4.10938 12.9906 4.18125 13.0125 4.22187 12.9719C4.2625 12.9406 4.25312 12.8687 4.2 12.8094C4.15 12.7594 4.07812 12.7375 4.0375 12.7781ZM3.7 12.525C3.67813 12.5656 3.70937 12.6156 3.77187 12.6469C3.82187 12.6781 3.88438 12.6687 3.90625 12.625C3.92812 12.5844 3.89687 12.5344 3.83437 12.5031C3.77187 12.4844 3.72187 12.4937 3.7 12.525ZM4.7125 13.6375C4.6625 13.6781 4.68125 13.7719 4.75312 13.8313C4.825 13.9031 4.91562 13.9125 4.95625 13.8625C4.99688 13.8219 4.97813 13.7281 4.91563 13.6687C4.84688 13.5969 4.75313 13.5875 4.7125 13.6375ZM4.35625 13.1781C4.30625 13.2094 4.30625 13.2906 4.35625 13.3625C4.40625 13.4344 4.49062 13.4656 4.53125 13.4344C4.58125 13.3938 4.58125 13.3125 4.53125 13.2406C4.4875 13.1688 4.40625 13.1375 4.35625 13.1781Z" fill="white"/>
</svg>
