<svg width="19" height="19" viewBox="0 0 19 19" fill="none" xmlns="http://www.w3.org/2000/svg">
<path d="M8.75 1C4.46978 1 1 4.46978 1 8.75C1 13.0302 4.46978 16.5 8.75 16.5C13.0302 16.5 16.5 13.0302 16.5 8.75C16.5 4.46978 13.0302 1 8.75 1ZM12.3422 6.27063C12.2256 7.49609 11.721 10.4699 11.4641 11.8425C11.3555 12.4232 11.1416 12.618 10.9345 12.637C10.4845 12.6785 10.1427 12.3396 9.70678 12.0539C9.02469 11.6067 8.63934 11.3284 7.97722 10.8921C7.21206 10.3879 7.70809 10.1108 8.14416 9.65772C8.25828 9.53919 10.2412 7.73553 10.2796 7.57191C10.2844 7.55144 10.289 7.47503 10.2436 7.43491C10.1981 7.39478 10.1314 7.40838 10.0831 7.41928C10.0147 7.43482 8.92503 8.15505 6.81409 9.57997C6.50482 9.79234 6.22468 9.89582 5.97366 9.89041C5.69694 9.88444 5.16466 9.73397 4.76894 9.60531C4.28359 9.44756 3.89784 9.36416 3.93144 9.09622C3.94894 8.95664 4.14112 8.81393 4.508 8.66809C6.76729 7.68376 8.27383 7.0348 9.02763 6.72122C11.1799 5.826 11.6271 5.6705 11.9186 5.66531C11.9827 5.66425 12.1261 5.68013 12.2189 5.75547C12.2807 5.80914 12.32 5.88404 12.3292 5.96534C12.345 6.0663 12.3493 6.1687 12.3422 6.27063Z" fill="white"/>
</svg>
